HIERARCHY
ROOT Hips
{
	OFFSET	0.00	0.00	0.00
	CHANNELS 6 Xposition Yposition Zposition Zrotation Xrotation Yrotation
	JOINT LeftUpLeg
	{
		OFFSET	 0.126116	-0.014019	-0.065224
		CHANNELS 3 Zrotation Xrotation Yrotation
		JOINT LeftLeg
		{
			OFFSET	 0.000000	 0.000000	 0.569914
			CHANNELS 3 Zrotation Xrotation Yrotation
			JOINT LeftFoot
			{
				OFFSET	 0.000000	 0.000000	 0.544423
				CHANNELS 3 Zrotation Xrotation Yrotation
				JOINT LeftToeBase
				{
					OFFSET	 0.000000	 0.000000	 0.207117
					CHANNELS 3 Zrotation Xrotation Yrotation
					End Site
					{
						OFFSET	 0.000000	 0.000000	 0.207117
					}
				}
			}
		}
	}
	JOINT RightUpLeg
	{
		OFFSET	-0.124023	-0.008373	-0.065224
		CHANNELS 3 Zrotation Xrotation Yrotation
		JOINT RightLeg
		{
			OFFSET	 0.000000	 0.000000	 0.570047
			CHANNELS 3 Zrotation Xrotation Yrotation
			JOINT RightFoot
			{
				OFFSET	 0.000000	 0.000000	 0.544354
				CHANNELS 3 Zrotation Xrotation Yrotation
				JOINT RightToeBase
				{
					OFFSET	 0.000000	 0.000000	 0.207540
					CHANNELS 3 Zrotation Xrotation Yrotation
					End Site
					{
						OFFSET	 0.000000	 0.000000	 0.207540
					}
				}
			}
		}
	}
	JOINT Spine
	{
		OFFSET	 0.000184	-0.007763	 0.117403
		CHANNELS 3 Zrotation Xrotation Yrotation
		JOINT Spine1
		{
			OFFSET	 0.000000	 0.000000	 0.137269
			CHANNELS 3 Zrotation Xrotation Yrotation
			JOINT Spine2
			{
				OFFSET	 0.000000	 0.000000	 0.156879
				CHANNELS 3 Zrotation Xrotation Yrotation
				JOINT LeftShoulder
				{
					OFFSET	 0.080501	-0.002496	 0.160144
					CHANNELS 3 Zrotation Xrotation Yrotation
					JOINT LeftArm
					{
						OFFSET	 0.000000	 0.000000	 0.164363
						CHANNELS 3 Zrotation Xrotation Yrotation
						JOINT LeftForeArm
						{
							OFFSET	 0.000000	 0.000000	 0.364576
							CHANNELS 3 Zrotation Xrotation Yrotation
							JOINT LeftHand
							{
								OFFSET	 0.000000	 0.000000	 0.360812
								CHANNELS 3 Zrotation Xrotation Yrotation
								JOINT LeftHandIndex1
								{
									OFFSET	 0.000000	 0.000000	 0.086006
									CHANNELS 3 Zrotation Xrotation Yrotation
									JOINT LeftHandIndex2
									{
										OFFSET	 0.000000	 0.000000	 0.047237
										CHANNELS 3 Zrotation Xrotation Yrotation
										JOINT LeftHandIndex3
										{
											OFFSET	-0.004284	-0.000551	 0.038165
											CHANNELS 3 Zrotation Xrotation Yrotation
											End Site
											{
												OFFSET	-0.004284	-0.000551	 0.038165
											}
										}
									}
								}
							}
						}
					}
				}
				JOINT Neck
				{
					OFFSET	 0.000000	 0.000000	 0.176489
					CHANNELS 3 Zrotation Xrotation Yrotation
					JOINT Head
					{
						OFFSET	 0.000000	-0.001747	 0.077940
						CHANNELS 3 Zrotation Xrotation Yrotation
						End Site
						{
							OFFSET	 0.000000	-0.001747	 0.077940
						}
					}
				}
				JOINT RightShoulder
				{
					OFFSET	-0.080363	 0.000306	 0.159706
					CHANNELS 3 Zrotation Xrotation Yrotation
					JOINT RightArm
					{
						OFFSET	 0.000000	 0.000000	 0.164196
						CHANNELS 3 Zrotation Xrotation Yrotation
						JOINT RightForeArm
						{
							OFFSET	 0.000000	 0.000000	 0.365611
							CHANNELS 3 Zrotation Xrotation Yrotation
							JOINT RightHand
							{
								OFFSET	 0.000000	 0.000000	 0.360648
								CHANNELS 3 Zrotation Xrotation Yrotation
								JOINT RightHandIndex1
								{
									OFFSET	 0.000000	 0.000000	 0.069977
									CHANNELS 3 Zrotation Xrotation Yrotation
									JOINT RightHandIndex2
									{
										OFFSET	 0.000000	 0.000000	 0.052305
										CHANNELS 3 Zrotation Xrotation Yrotation
										JOINT RightHandIndex3
										{
											OFFSET	 0.009002	-0.000782	 0.042196
											CHANNELS 3 Zrotation Xrotation Yrotation
											End Site
											{
												OFFSET	 0.009002	-0.000782	 0.042196
											}
										}
									}
								}
							}
						}
					}
				}
			}
		}
	}
}
MOTION
Frames:    9
Frame Time: 0.03333334
-0.450770	-0.033216	 1.272666	 179.988600	-3.850561	 2.006909	 20.736930	-0.536258	 173.948700	-7.133298	-14.225300	-1.901615	-4.050990	 72.148670	-5.860433	-2.385833	 28.452760	 0.000004	 15.208520	 2.439224	 177.652300	 2.200989	-10.230950	 0.120487	 12.514460	 68.279150	 2.270079	 2.384659	 28.388700	-0.000001	-2.782296	 9.371366	-2.874521	-0.582927	 0.544236	-3.571184	 3.577265	-2.383728	 7.085936	-91.776180	 78.527420	-180.000000	-52.021380	 4.344301	 0.889334	 0.675167	-2.548976	-43.798240	-0.160871	-14.920600	-1.745580	-4.130319	 21.525730	 0.991547	-5.167930	 0.731704	 3.519349	-1.378229	 35.397820	-2.634230	-2.637066	 0.420639	 1.501921	-12.965220	-26.286820	-12.598540	 89.782130	 78.203890	 180.000000	 15.934890	-7.081042	-4.602580	-14.495650	-8.050165	 43.395280	-1.368755	 49.901970	 102.052300	 5.716227	 19.173190	-3.685159	 5.027444	 0.246877	-9.377972	-2.350882	 35.473990	 5.254307
-0.451606	-0.034019	 1.271025	-179.472700	-4.143395	 2.804970	 23.523270	-4.375543	 172.707100	-9.620131	-22.055800	-3.858196	-4.026965	 76.170620	-3.985675	-2.385833	 28.452760	 0.000004	 14.012960	-0.674014	 177.861500	 3.550034	-17.355170	 0.604989	 9.021677	 70.972080	 4.709021	 2.384659	 28.388700	-0.000001	-3.966992	 9.585638	-3.422016	-0.970376	 2.369072	-5.028726	 3.400977	-4.740751	 8.451151	-91.776180	 78.527360	-180.000000	-56.442800	 15.968100	 13.680230	-1.119708	-2.337284	-70.015130	-1.105231	-14.255620	-2.221441	-4.130319	 21.525730	 0.991547	-5.167930	 0.731704	 3.519349	-1.378229	 35.397820	-2.634230	-3.152799	 1.186566	 2.284845	-14.331180	-28.791870	-15.968380	 89.782110	 78.203850	 180.000000	 23.519480	-1.236666	-13.847110	-9.118431	-11.383110	 75.144030	 16.356460	 57.854270	 84.232800	 5.716227	 19.173190	-3.685159	 5.027444	 0.246877	-9.377972	-2.350882	 35.473990	 5.254307
-0.452897	-0.035838	 1.266430	-178.661700	-3.812443	 2.586401	 20.751550	-8.568856	 173.342400	-10.868880	-32.951280	-6.275842	-19.908720	 82.655240	 12.237240	-2.385833	 28.452760	 0.000004	 12.687270	-5.816450	-179.440500	 4.095603	-28.382690	 1.223713	 19.168000	 76.212570	-6.524790	 2.384659	 28.388700	-0.000001	-7.117110	 9.398692	-2.848035	-2.182953	 3.151355	-5.918537	 3.470662	-4.769649	 9.020724	-91.776180	 78.527400	-180.000000	-33.240840	 38.091160	 8.995260	-1.973563	-2.182252	-90.676270	-1.537986	-15.325870	-2.379898	-4.130319	 21.525730	 0.991547	-5.167930	 0.731704	 3.519349	-1.378229	 35.397820	-2.634230	-3.056795	 0.675014	 1.919946	-14.097050	-27.940630	-15.403370	 89.782080	 78.203920	-180.000000	 23.618860	 20.029800	-12.632790	-2.280812	-8.637739	 114.499900	 45.918980	 39.272820	 19.217590	 5.716227	 19.173190	-3.685159	 5.027444	 0.246877	-9.377972	-2.350882	 35.473990	 5.254307
-0.455954	-0.038767	 1.259601	-177.358300	-3.608205	 2.235532	 16.655890	-11.921100	 174.460100	-12.628440	-43.936350	-9.236244	-106.424800	 85.344910	 98.867200	-2.385833	 28.452760	 0.000004	 11.003590	-10.181220	-175.283300	 5.028847	-38.413140	 2.180170	 38.636890	 78.994970	-27.666580	 2.384659	 28.388700	-0.000001	-11.614750	 8.751335	-2.712899	-3.897475	 5.465833	-5.392174	 3.301623	-5.447240	 8.858134	-91.776130	 78.527360	 180.000000	 16.782620	 52.117370	-62.238750	-0.945191	-1.014931	-47.042110	-2.463355	-16.534090	-2.659549	-4.130319	 21.525730	 0.991547	-5.167930	 0.731704	 3.519349	-1.378229	 35.397820	-2.634230	-3.253065	 0.164101	 0.593335	-13.827610	-26.872390	-12.292420	 89.782090	 78.203900	 180.000000	-36.667580	 49.388600	 63.157150	-3.394694	-8.699374	 108.659400	 8.125690	 13.148740	-8.842300	 5.716227	 19.173190	-3.685159	 5.027444	 0.246877	-9.377972	-2.350882	 35.473990	 5.254307
-0.463504	-0.041597	 1.257168	-176.161800	-3.702407	 2.315680	 13.239660	-12.394980	 175.298000	-12.758270	-46.868580	-9.802746	-124.064000	 83.608670	 116.305600	-2.385833	 28.452760	 0.000004	 8.635501	-11.304880	-173.488600	 5.823641	-40.908800	 2.819556	 37.613430	 77.578900	-27.740870	 2.384659	 28.388700	-0.000001	-14.898040	 8.397906	-3.109204	-4.332395	 6.880920	-4.156816	 3.190828	-6.240988	 8.492506	-91.776180	 78.527380	-180.000000	 44.755370	 47.345980	-98.571270	-1.479290	-0.181886	-31.481200	-3.653432	-17.977060	-3.062837	-4.130319	 21.525730	 0.991547	-5.167930	 0.731704	 3.519349	-1.378229	 35.397820	-2.634230	-4.031865	 2.213307	 2.402954	-14.841520	-28.266220	-16.291760	 89.782140	 78.203870	 180.000000	-63.366070	 40.098260	 101.111800	-7.733560	-7.899334	 80.761620	-8.141475	-1.872942	-3.253478	 5.716227	 19.173190	-3.685159	 5.027444	 0.246877	-9.377972	-2.350882	 35.473990	 5.254307
-0.474328	-0.044166	 1.257492	-174.730000	-3.556241	 2.455309	 10.108030	-11.817320	 176.242300	-11.545240	-45.332720	-8.673881	-111.926300	 84.154670	 103.818000	-2.385833	 28.452760	 0.000004	 6.225303	-11.861330	-173.037700	 6.609558	-40.872720	 3.333775	 26.747510	 75.699520	-17.213810	 2.384659	 28.388700	-0.000001	-17.665860	 8.452594	-2.767231	-3.440617	 5.389130	-3.687363	 2.884215	-4.740386	 8.063262	-91.776180	 78.527380	-180.000000	 61.909630	 39.369790	-97.913490	-1.938200	 0.468797	-75.162310	-4.969175	-19.993770	-3.651689	-4.130319	 21.525730	 0.991547	-5.167930	 0.731704	 3.519349	-1.378229	 35.397820	-2.634230	-4.065337	 1.233291	 1.644381	-14.390020	-26.429410	-14.030180	 89.782010	 78.203850	-179.999900	-68.253850	 38.011820	 102.261600	-8.476728	-6.593915	 74.501440	-10.273750	-11.569610	 2.460850	 5.716227	 19.173190	-3.685159	 5.027444	 0.246877	-9.377972	-2.350882	 35.473990	 5.254307
-0.482902	-0.044789	 1.256596	-173.480300	-3.427980	 1.815712	 7.346847	-10.832340	 178.184100	-10.416090	-44.028240	-7.677977	-106.711700	 84.791660	 97.998150	-2.385833	 28.452760	 0.000004	 7.228619	-14.095430	-171.105600	 6.040987	-44.901100	 3.192738	 31.440990	 75.706300	-21.904720	 2.384659	 28.388700	-0.000001	-20.117030	 8.692424	-1.922139	-2.144828	 2.632824	-1.986476	 2.456486	-2.715494	 6.813169	-91.776180	 78.527360	-180.000000	 21.579940	 57.760650	-89.349540	-2.522717	 1.444842	-60.939690	-6.481908	-22.147680	-4.425461	-4.130319	 21.525730	 0.991547	-5.167930	 0.731704	 3.519349	-1.378229	 35.397820	-2.634230	-4.053522	-0.339439	 0.610190	-13.911560	-24.330690	-11.164670	 89.782070	 78.203830	-180.000000	-64.790490	 41.985150	 88.892900	-10.058720	-4.437929	 55.458270	 2.520252	-20.905790	 34.697040	 5.716227	 19.173190	-3.685159	 5.027444	 0.246877	-9.377972	-2.350882	 35.473990	 5.254307
-0.488174	-0.045427	 1.257428	-172.360300	-3.967892	 1.930311	 3.878859	-9.301425	 178.960200	-9.344945	-42.937150	-6.784352	-103.879900	 85.237690	 94.481120	-2.385833	 28.452760	 0.000004	 9.516411	-16.041320	-170.099000	 4.808175	-48.346320	 2.456057	 42.062100	 76.292460	-32.426190	 2.384659	 28.388700	-0.000001	-22.206910	 9.703502	-2.474159	-0.203850	 2.200893	 0.698195	 2.355348	-2.962009	 5.630850	-91.776220	 78.527360	-180.000000	 11.789240	 56.383810	-53.973800	-1.160789	 2.876852	-100.046900	-8.548854	-24.517160	-5.542835	-4.130319	 21.525730	 0.991547	-5.167930	 0.731704	 3.519349	-1.378229	 35.397820	-2.634230	-4.378456	 0.581054	 1.580199	-14.334760	-25.189090	-13.167830	 89.782160	 78.203870	 179.999900	-48.747740	 45.985390	 66.466290	-8.477200	-3.072377	 66.221020	 14.104730	-16.497370	 38.846890	 5.716227	 19.173190	-3.685159	 5.027444	 0.246877	-9.377972	-2.350882	 35.473990	 5.254307
-0.482516	-0.043517	 1.261476	-171.491200	-4.066726	 2.364458	 0.430275	-8.033203	 179.002600	-8.133914	-41.302420	-5.764163	-81.282260	 84.986790	 71.475180	-2.385833	 28.452760	 0.000004	 11.167260	-17.725150	-169.963500	 3.900853	-44.752460	 1.674856	 36.532190	 74.906710	-26.069440	 2.384659	 28.388700	-0.000001	-23.026030	 10.426190	-3.070352	 2.705796	 2.459326	 2.402670	 2.271726	-3.805716	 4.956311	-91.776260	 78.527420	-179.999900	 23.269420	 53.580820	-52.341040	 0.557676	 3.754861	-119.068600	-10.844050	-26.936240	-6.944195	-4.130319	 21.525730	 0.991547	-5.167930	 0.731704	 3.519349	-1.378229	 35.397820	-2.634230	-4.630814	 0.827878	 2.089017	-14.634680	-25.784110	-14.004680	 89.782090	 78.203850	-180.000000	-36.814380	 47.466740	 52.107990	-7.681700	-2.037056	 80.080540	 20.451070	-18.735340	 31.697750	 5.716227	 19.173190	-3.685159	 5.027444	 0.246877	-9.377972	-2.350882	 35.473990	 5.254307
